<?xml version="1.0" encoding="UTF-8"?> <!-- Generator: Adobe Illustrator 25.0.0, SVG Export Plug-In . SVG Version: 6.00 Build 0) --> <svg xmlns="http://www.w3.org/2000/svg" xmlns:xlink="http://www.w3.org/1999/xlink" id="katman_1" x="0px" y="0px" viewBox="0 0 3595 2394.4" style="enable-background:new 0 0 3595 2394.4;" xml:space="preserve"> <style type="text/css"> .st0{fill-rule:evenodd;clip-rule:evenodd;fill:#1A3B73;} </style> <g> <path class="st0" d="M1159.8,669.2c174.6-60.7,351.7-100.5,531.8-117.4c23.9-70.4,44.8-159.5,71.7-211.4 c24.1-52.8,68.2-42.1,126,12.2c63.2,62,121,126.7,176.2,192.6c109,8,213.6,21.7,286.8,75.5c47.2,39.8,57.2,102.1,13.2,197.5 c-23.1,41.2-47.2,81.9-72,122c17.5,51.3,30.1,102.6,35.7,153.9l-7.1,11.6l-44.7-138.7l-127,172c104.7,7.9,193.9,29.8,278.8,55.6 c38.4-87.3,58.1-181.6,58.1-277c-6.9-377.3-311.9-679.5-689.1-679.5C1508.3,238.2,1259.7,414.1,1159.8,669.2z M2322.8,1357.3 c-117.5,154.1-314.4,245.5-524.7,245.5c-377.3,0-685-307.7-685-685c0-50.6,5.5-100,16.1-147.6c147.2-72.1,330.2-137.3,536-153.6 c-25.1,65.5-59.9,125.7-101.4,182.1l-75.1-122.6l-5.6,22.6l70.2,114.8c-50.9,68.9-97.5,142.2-143,216.6 c-31,69.5-67.8,136.7-6,182.4c61.8,37.4,190.9,19.4,337.6,3.5c31.3,74.1,33.2,148.9,73.4,210.1c32.6,44.2,69.1,34.4,107.2,0.2 c65.9-69.2,123.9-146.4,180.7-224.9c80,3.4,147.6,16.6,200.2,41.9C2352.2,1277.1,2344.4,1321.9,2322.8,1357.3L2322.8,1357.3z M1777.7,545.6c79.2-5.4,158.6-6.7,238-4c-25.9-32.8-52.3-65.7-94.5-101.2c-35.6-29.2-64-27-87.4-3.5 C1810,469.5,1791.9,506.2,1777.7,545.6L1777.7,545.6z M2144,649.9c27.9,6.2,56.1,13.3,85.4,26.3c35.4,18.6,46.6,51.2,47,90.1 c-2.7,38.9-10.6,62-18.7,84.5C2223.9,781.6,2186,714.5,2144,649.9L2144,649.9z M1715.5,1147.8c-74.4,6.3-140.4,8.6-176.2-3.5 c-50.6-19.7-38.1-68.6-16.6-121.6l72.5-133.3C1642.1,972.3,1682.3,1058.6,1715.5,1147.8z M1778.2,1212 c83.5-8.3,167.3-12.5,251.2-12.6c-28.2,34.8-57.5,68.6-87.9,101.4c-43.1,43.4-86.1,75-121.3,9.8 C1804,1278.7,1790,1245.8,1778.2,1212L1778.2,1212z M1745.5,609.3c126,0.2,242.7,8.4,345.7,28.3c60.8,77.3,114.5,157.7,152.3,244.8 c-39.2,79.8-93.1,162.8-161.8,249.2c-110-3.5-220.8-4.6-337.4,11.6l-137.8-274.3C1659.4,786,1705.9,699.3,1745.5,609.3z M2272.7,2123.1c3.8,5.7,12.3,7,20.3,10.5c21.4,10.5,58.1,8,71.5-12.9c8.8-31.5-19.8-43.2-33.1-49.9 c-27.8-12.6-61.5-30.1-59.1-60.6c-1.4-24.5,32.6-43.9,54.6-43.9c19.5,1.5,39.1,1.2,52.2,9.1l-1.4,20.2c-7-5.7-29.2-12.6-42.8-12.6 c-16.9,0-37.1,4.1-37.6,24.6c0,21,24,33.8,39.6,40.3c38.7,16.1,70.8,40,47.6,81.9c-12.3,19-38.1,26.4-59.7,26.4 c-16,0-41.5-3.8-52.2-8.5L2272.7,2123.1L2272.7,2123.1z M1967.4,1852.9c1.9,2.9,6.2,3.5,10.3,5.3c10.9,5.3,29.4,4.1,36.2-6.4 c4.5-16-10-21.9-16.7-25.3c-14-6.4-31.1-15.2-29.9-30.6c-0.7-12.4,16.5-22.2,27.7-22.2c9.8,0.8,19.8,0.6,26.4,4.6l-0.7,10.2 c-3.5-2.9-14.8-6.4-21.7-6.4c-8.5,0-18.8,2.1-19,12.4c0,10.6,12.2,17.1,20.1,20.4c19.6,8.1,35.8,20.2,24.1,41.4 c-6.2,9.6-19.3,13.4-30.2,13.4c-8.1,0-21-1.9-26.4-4.3L1967.4,1852.9L1967.4,1852.9z M908.9,1852.9c1.9,2.9,6.2,3.5,10.3,5.3 c10.9,5.3,29.4,4.1,36.2-6.4c4.4-16-10-21.9-16.7-25.3c-14-6.4-31.1-15.2-29.9-30.6c-0.7-12.4,16.5-22.2,27.6-22.2 c9.9,0.8,19.8,0.6,26.4,4.6l-0.7,10.2c-3.5-2.9-14.8-6.4-21.7-6.4c-8.5,0-18.8,2.1-19,12.4c0,10.6,12.2,17.1,20.1,20.4 c19.6,8.1,35.8,20.2,24.1,41.4c-6.2,9.6-19.3,13.4-30.2,13.4c-8.1,0-21-1.9-26.4-4.3L908.9,1852.9L908.9,1852.9z M2063.3,2153.7 v-182.3h26.2l101.3,143.1v-143.1h24.5v182.3h-26.2l-101.3-143.3v143.3H2063.3z M2895.4,2153.7v-182.3h26.2l101.3,143.1v-143.1h24.5 v182.3h-26.2l-101.3-143.3v143.3H2895.4z M1970.5,2152.7V1971h24.5v181.7H1970.5z M1200.4,1867.9V1776h12.4v91.9H1200.4z M2800.2,2152.7V1971h24.5v181.7H2800.2z M2712.5,1867.9V1776h12.4v91.9H2712.5z M1866.9,1867.9V1776h12.4v91.9H1866.9z M1555.6,2152.7V1986h-76.8v-15.4h177.1v15.4h-75.7v166.7H1555.6z M2495.7,2152.7V1986h-76.8v-15.4h177.1v15.4h-75.7v166.7H2495.7z M2842.4,1867.9v-84.3h-38.9v-7.8h89.6v7.8h-38.3v84.3H2842.4L2842.4,1867.9z M1330.3,1867.9v-84.3h-38.9v-7.8h89.6v7.8h-38.3v84.3 H1330.3z M1138.7,2152.7v-181.6h116.6v17.1h-89v61.3h75.6v17h-75.6v68.9h95.7v17.1H1138.7z M1806.5,2152.7v-181.6h116.6v17.1h-89 v61.3h75.6v17h-75.6v68.9h95.7v17.1H1806.5L1806.5,2152.7z M2634.7,2152.7v-181.6h116.6v17.1h-89v61.3h75.6v17h-75.6v68.9h95.7 v17.1H2634.7z M2428.2,1867.9v-91.8h59v8.7h-45v31h38.2v8.6h-38.2v34.9h48.4v8.6H2428.2z M787.9,2152.7v-180.5h27.4v162.1H911v18.4 H787.9L787.9,2152.7z M2574.9,1867.9v-91.3h13.9v82h48.3v9.3L2574.9,1867.9L2574.9,1867.9z M1605.9,1867.9v-91.3h13.8v82h48.4v9.3 L1605.9,1867.9L1605.9,1867.9z M607.3,2081.1h70.1l-36.2-90.7C641.1,1990.4,607.3,2081.1,607.3,2081.1z M547.6,2152.7l79.4-181.4 h29.4l84.6,181.4h-31.2l-24.1-52.1h-86.4l-22.7,52.1L547.6,2152.7L547.6,2152.7z M1461,1831.7h35.5l-18.3-45.9L1461,1831.7 L1461,1831.7z M1430.9,1867.9l40.1-91.7h14.9l42.8,91.7H1513l-12.2-26.3h-43.7l-11.4,26.3H1430.9z M2281.9,1831.7h35.4l-18.3-45.9 L2281.9,1831.7z M2251.8,1867.9l40.1-91.7h14.9l42.8,91.7h-15.8l-12.2-26.3h-43.7l-11.4,26.3H2251.8L2251.8,1867.9z M2979.3,1831.7 h35.5l-18.3-45.9L2979.3,1831.7z M2949.2,1867.9l40.1-91.7h14.9l42.7,91.7h-15.7l-12.2-26.3h-43.7l-11.4,26.3H2949.2L2949.2,1867.9 z M1339.1,2057.5h24.1c44.3,0,64.8-70.5,8.8-70.5h-32.9V2057.5z M1310.2,2153.7v-182.6h79.3c11.4,0,46.4,11.2,46.2,46 c-0.1,29.5-24.5,42.8-42.3,50.6l67.3,85.9h-30.9l-62.3-81h-28.5v81H1310.2L1310.2,2153.7z M2124.6,1819.8h12.2 c22.4,0,32.8-35.7,4.4-35.7h-16.6L2124.6,1819.8L2124.6,1819.8z M2110.1,1868.4v-92.4h40.1c5.8,0,23.5,5.7,23.4,23.3 c-0.1,14.9-12.4,21.6-21.4,25.6l34,43.4h-15.6l-31.6-41h-14.4v41L2110.1,1868.4L2110.1,1868.4z M1068,1819.8h12.2 c22.4,0,32.8-35.7,4.4-35.7h-16.6L1068,1819.8L1068,1819.8z M1053.5,1868.4v-92.4h40.1c5.8,0,23.5,5.7,23.4,23.3 c-0.1,14.9-12.2,22.2-21.2,26.4c-4.6,2-7.7,1.5-13.4,1.6H1068v41L1053.5,1868.4L1053.5,1868.4z M957.8,2152.7v-181.4h62.1 c12.6,0,22.8,1.9,30.4,5.5c7.7,3.6,15.1,7.9,19.4,15.5c16.3,28.7-8.3,58.1-35.3,64.8c19,6.1,48.4,24.8,48.4,43 c0.6,25.4-12.5,44.8-35.2,49.5c-7.2,2-16.2,3-26.7,3L957.8,2152.7L957.8,2152.7L957.8,2152.7z M984.1,2135.6h24 c15.6,0,35.1-3.1,41.8-16.4c2.2-4.8,3.4-10,3.3-15.2c0.1-6.2-1.5-12.4-4.7-17.7c-8-12.6-30.5-20.1-43.2-20.1h-21L984.1,2135.6 L984.1,2135.6z M984.1,2050.4h25.8c12.3,0,25.3-4.9,33.5-17.3c3-4.7,4.4-10.3,4.2-15.9c0-5.9-1.3-11.3-3.9-15.9 c-8.1-14-23.6-14.4-36.6-14.4h-23V2050.4L984.1,2050.4z M576.1,1867.5h9.8v-91.6h-9.8V1867.5z M634.5,1867.5h9.8v-91.6h-9.8V1867.5 z"></path> <path class="st0" d="M633.2,1823.2v-6.1h-47.9v6.1H633.2z M778.7,1772.2c23,0,41.7,22.7,41.7,50.4s-18.8,50.4-41.7,50.4 c-23,0-41.8-22.7-41.8-50.4S755.7,1772.2,778.7,1772.2z M778.7,1782c17.5,0,31.9,18.2,31.9,40.6s-14.3,40.6-31.9,40.6 c-17.6,0-31.9-18.2-31.9-40.6C746.8,1800.2,761.1,1782,778.7,1782z"></path> </g> </svg> 